<svg xmlns="http://www.w3.org/2000/svg" width="620pt" height="160pt" viewBox="0 0 620 160" version="1.1" wmode="transparent">
<path fill="transparent" d=" M 0.00 0.00 L 620.00 0.00 L 620.00 160.00 L 0.00 160.00 L 0.00 0.00 Z"></path>
<path fill="#02fffd" d=" M 514.55 5.43 C 515.99 5.96 517.43 6.51 518.89 7.06 C 517.90 7.64 516.97 8.37 515.86 8.65 C 515.94 9.64 516.03 10.64 516.15 11.63 L 517.26 11.28 C 515.76 13.33 514.20 15.34 512.93 17.53 C 513.47 18.23 514.08 18.88 514.74 19.48 C 515.52 18.54 516.30 17.60 517.09 16.66 C 518.98 16.75 520.85 16.43 522.55 15.57 C 519.98 12.52 522.36 8.35 525.96 7.76 C 525.18 9.40 524.46 11.06 523.87 12.78 C 524.87 12.70 526.88 12.55 527.88 12.47 C 527.01 13.52 525.36 14.10 525.14 15.58 C 526.53 15.90 527.94 16.17 529.36 16.41 C 527.78 17.85 526.41 20.13 523.96 19.82 C 523.24 22.83 521.34 25.20 519.10 27.22 C 519.64 25.78 520.88 24.41 520.28 22.75 C 518.24 23.77 516.25 24.87 514.30 26.05 C 510.53 24.37 506.77 22.60 503.45 20.11 C 504.55 17.63 505.90 15.25 507.62 13.14 C 508.07 13.92 508.96 15.50 509.41 16.28 C 511.28 14.33 513.08 12.28 515.29 10.69 C 515.05 8.93 514.80 7.18 514.55 5.43 Z"></path>
<path fill="#02fffd" d=" M 515.28 16.19 C 516.97 13.81 518.77 11.51 520.58 9.22 C 520.16 10.89 519.75 12.56 519.35 14.23 C 517.99 14.89 516.63 15.55 515.28 16.19 Z"></path>
<path fill="#f60900" d=" M 80.06 14.19 C 81.38 14.23 82.71 14.27 84.04 14.28 C 85.80 15.76 87.72 17.60 90.25 17.05 C 89.30 15.93 88.17 14.99 86.93 14.20 C 89.44 14.27 91.95 14.12 94.45 14.42 C 94.50 15.27 94.60 16.96 94.65 17.80 C 96.49 16.81 98.27 15.73 100.03 14.61 C 102.34 16.29 105.13 15.96 107.77 15.49 C 106.49 16.12 105.21 16.77 103.95 17.43 C 105.56 17.76 107.18 18.08 108.80 18.41 C 105.65 19.18 102.30 19.26 99.37 20.76 C 98.99 20.66 98.22 20.45 97.84 20.34 C 93.03 20.98 88.23 21.67 83.48 22.60 C 82.25 23.24 81.03 23.90 79.82 24.58 C 78.13 23.63 76.46 22.68 74.78 21.72 C 73.63 22.91 72.47 24.09 71.29 25.26 C 66.52 25.46 61.98 27.03 57.31 27.87 C 57.99 25.77 58.70 23.69 59.42 21.61 C 62.16 21.20 64.36 19.46 66.66 18.06 C 67.66 18.54 68.65 19.02 69.65 19.49 C 71.47 18.05 73.27 15.90 75.83 17.20 C 77.24 16.20 78.65 15.19 80.06 14.19 Z"></path>
<path fill="#fe8382" d=" M 91.29 16.06 C 91.84 16.58 91.84 16.58 91.29 16.06 Z"></path>
<path fill="#fcbeba" d=" M 98.99 16.05 C 100.67 15.57 101.32 16.11 100.91 17.69 C 99.25 18.14 98.61 17.59 98.99 16.05 Z"></path>
<path fill="#007520" d=" M 384.85 20.94 C 385.08 19.03 385.46 17.04 386.96 15.69 C 386.75 17.78 386.31 19.85 385.51 21.79 C 385.69 22.78 386.04 24.75 386.22 25.73 C 387.74 23.10 388.74 20.21 389.80 17.37 C 391.82 17.64 393.40 18.93 394.95 20.16 C 393.89 20.88 392.83 21.60 391.77 22.31 C 393.62 25.82 391.91 29.76 391.76 33.46 C 388.26 33.36 390.25 37.66 388.74 39.63 C 386.40 38.90 384.39 39.89 382.65 41.37 C 384.34 44.04 386.45 46.39 388.47 48.80 C 387.51 49.87 386.55 50.94 385.59 52.00 C 386.55 52.41 387.51 52.82 388.47 53.24 C 385.18 54.65 383.02 57.54 381.03 60.38 C 380.57 60.07 379.65 59.44 379.19 59.12 C 378.63 58.85 377.52 58.31 376.97 58.03 C 376.81 59.33 377.22 60.42 378.17 61.30 C 374.40 61.81 370.88 59.96 367.38 58.89 C 369.51 54.20 371.86 49.62 374.09 44.97 C 374.00 44.29 373.82 42.92 373.73 42.24 C 375.22 39.95 376.59 37.58 377.52 35.01 C 377.05 34.65 376.10 33.93 375.63 33.57 C 376.82 31.58 377.39 28.93 379.68 27.85 C 379.37 24.86 379.51 21.86 379.82 18.87 C 381.68 19.07 383.70 19.21 384.85 20.94 Z"></path>
<path fill="#b94800" d=" M 113.24 17.09 C 114.59 16.61 116.96 18.01 116.85 19.52 C 115.46 20.00 113.00 18.69 113.24 17.09 Z"></path>
<path fill="#c23f00" d=" M 108.80 18.41 L 109.22 18.30 C 110.31 18.69 111.39 19.12 112.46 19.59 C 104.98 22.03 97.12 22.85 89.61 25.15 L 89.01 25.27 C 87.16 24.38 85.32 23.48 83.48 22.60 C 88.23 21.67 93.03 20.98 97.84 20.34 C 97.90 20.72 98.04 21.48 98.11 21.86 C 98.42 21.59 99.05 21.04 99.37 20.76 C 102.30 19.26 105.65 19.18 108.80 18.41 Z"></path>
<path fill="#1df4df" d=" M 498.37 17.71 C 499.57 18.68 500.47 19.93 501.32 21.22 C 502.02 20.85 502.73 20.48 503.45 20.11 C 506.77 22.60 510.53 24.37 514.30 26.05 L 515.56 26.65 C 513.99 27.48 512.42 28.26 510.88 29.13 C 506.39 26.99 502.18 24.32 497.71 22.13 C 497.91 20.66 498.13 19.18 498.37 17.71 Z"></path>
<path fill="#d96b45" d=" M 97.84 20.34 C 98.22 20.45 98.99 20.66 99.37 20.76 C 99.05 21.04 98.42 21.59 98.11 21.86 C 98.04 21.48 97.90 20.72 97.84 20.34 Z"></path>
<path fill="#817e00" d=" M 89.61 25.15 C 97.12 22.85 104.98 22.03 112.46 19.59 C 113.80 20.42 115.15 21.24 116.49 22.08 C 109.42 23.56 102.33 24.96 95.26 26.49 L 94.89 26.41 C 93.79 26.03 92.70 25.64 91.62 25.24 C 91.12 25.21 90.11 25.17 89.61 25.15 Z"></path>
<path fill="#359e35" d=" M 405.33 21.16 C 408.15 20.84 410.95 20.50 413.76 20.11 C 415.00 21.17 416.39 22.22 416.62 23.96 C 413.78 23.34 411.07 22.24 408.23 21.60 C 407.77 21.78 406.86 22.13 406.40 22.30 L 406.15 22.40 C 405.95 22.09 405.54 21.47 405.33 21.16 Z"></path>
<path fill="#32d29e" d=" M 492.72 22.28 C 494.08 20.57 496.08 21.37 497.71 22.13 C 502.18 24.32 506.39 26.99 510.88 29.13 C 510.32 29.38 509.21 29.88 508.65 30.13 C 507.15 29.54 505.68 28.85 504.21 28.20 C 503.48 27.17 502.74 26.15 501.98 25.15 C 501.95 25.94 501.88 27.51 501.85 28.29 C 498.70 26.44 495.65 24.44 492.72 22.28 Z"></path>
<path fill="#00fafa" d=" M 535.31 21.22 C 539.20 21.00 543.90 18.80 546.82 22.61 L 544.17 22.89 C 545.69 23.40 547.20 23.91 548.74 24.41 C 548.95 27.26 549.77 29.98 550.63 32.69 C 550.43 34.26 550.35 35.85 550.33 37.44 C 548.58 36.84 546.87 36.17 545.21 35.38 C 545.90 35.21 547.28 34.87 547.97 34.70 C 543.67 30.28 539.52 25.73 535.31 21.22 Z"></path>
<path fill="transparent" d=" M 71.29 25.26 C 72.47 24.09 73.63 22.91 74.78 21.72 C 76.46 22.68 78.13 23.63 79.82 24.58 C 81.03 23.90 82.25 23.24 83.48 22.60 C 85.32 23.48 87.16 24.38 89.01 25.27 L 89.61 25.15 C 90.11 25.17 91.12 25.21 91.62 25.24 C 92.70 25.64 93.79 26.03 94.89 26.41 L 95.26 26.49 C 96.48 27.70 97.65 28.97 98.72 30.32 C 100.51 32.97 103.35 35.53 102.67 39.07 C 101.21 39.92 100.17 38.71 99.11 37.86 C 98.12 39.60 97.12 41.32 96.11 43.04 C 96.80 44.27 97.49 45.50 98.18 46.73 C 97.03 47.51 95.88 48.29 94.72 49.07 C 94.61 47.29 94.50 45.52 94.39 43.75 C 93.56 43.90 91.88 44.21 91.05 44.37 C 90.00 45.02 88.96 45.66 87.91 46.30 C 85.47 46.98 83.20 48.13 80.96 49.30 C 79.77 47.61 78.31 46.13 76.76 44.77 C 76.88 43.51 77.00 42.24 77.13 40.98 C 75.84 39.81 74.56 38.63 73.28 37.45 C 73.91 37.04 75.18 36.20 75.81 35.79 L 75.49 35.30 C 75.08 34.57 74.26 33.11 73.86 32.38 C 73.71 32.07 73.41 31.45 73.27 31.14 C 73.71 30.57 74.60 29.43 75.05 28.86 C 74.76 28.48 74.20 27.72 73.92 27.34 C 72.76 28.83 71.60 30.31 70.42 31.78 L 70.74 29.25 C 70.92 27.92 71.10 26.59 71.29 25.26 Z"></path>
<path fill="#3bc400" d=" M 95.26 26.49 C 102.33 24.96 109.42 23.56 116.49 22.08 L 116.78 22.03 C 119.56 24.25 122.39 26.41 125.02 28.81 C 122.48 27.80 120.14 26.30 117.47 25.64 C 115.98 25.33 114.47 25.13 112.96 24.99 C 112.65 23.47 112.03 23.42 111.11 24.84 C 109.53 25.35 107.95 25.85 106.40 26.45 C 106.13 26.09 105.58 25.37 105.30 25.02 C 105.42 25.50 105.65 26.46 105.76 26.94 C 103.36 27.94 101.02 29.10 98.72 30.32 C 97.65 28.97 96.48 27.70 95.26 26.49 Z"></path>
<path fill="#026c25" d=" M 406.40 22.30 C 406.86 22.13 407.77 21.78 408.23 21.60 C 411.07 22.24 413.78 23.34 416.62 23.96 C 417.14 24.07 418.18 24.28 418.70 24.38 C 419.13 28.79 421.24 32.90 420.38 37.42 C 418.53 36.83 416.70 36.13 414.93 35.34 C 415.69 35.21 417.21 34.96 417.98 34.83 C 414.13 30.64 410.18 26.55 406.40 22.30 Z"></path>
<path fill="#3dab5b" d=" M 490.35 24.45 C 491.14 23.74 491.93 23.01 492.72 22.28 C 495.65 24.44 498.70 26.44 501.85 28.29 C 501.82 29.08 501.78 30.64 501.75 31.42 L 503.30 31.72 C 503.65 31.85 504.34 32.11 504.69 32.24 L 505.35 32.85 C 505.06 33.32 504.48 34.26 504.18 34.74 L 503.86 34.50 C 499.27 31.26 494.39 28.40 490.35 24.45 Z"></path>
<path fill="#9fe081" d=" M 111.11 24.84 C 112.03 23.42 112.65 23.47 112.96 24.99 C 112.50 24.95 111.57 24.88 111.11 24.84 Z"></path>
<path fill="#257f2a" d=" M 447.62 28.69 C 448.37 27.09 449.11 25.48 449.85 23.86 C 450.82 23.73 452.77 23.45 453.75 23.31 C 453.41 24.12 452.72 25.74 452.38 26.55 C 454.22 27.07 457.53 26.26 457.17 29.23 C 453.98 29.11 450.79 28.92 447.62 28.69 Z"></path>
<path fill="#b94800" d=" M 57.31 27.87 C 61.98 27.03 66.52 25.46 71.29 25.26 C 71.10 26.59 70.92 27.92 70.74 29.25 C 65.95 30.22 61.30 31.83 57.11 34.37 C 57.21 32.22 57.10 30.08 56.98 27.94 L 57.31 27.87 Z"></path>
<path fill="#9ee382" d=" M 105.30 25.02 C 105.58 25.37 106.13 26.09 106.40 26.45 L 105.76 26.94 C 105.65 26.46 105.42 25.50 105.30 25.02 Z"></path>
<path fill="#34d321" d=" M 106.40 26.45 C 107.95 25.85 109.53 25.35 111.11 24.84 C 111.57 24.88 112.50 24.95 112.96 24.99 C 114.47 25.13 115.98 25.33 117.47 25.64 C 118.02 27.67 118.72 29.66 119.38 31.66 C 119.65 32.70 119.84 33.75 120.03 34.81 L 120.24 36.13 C 120.93 36.96 121.63 37.79 122.33 38.61 C 120.61 39.77 118.90 40.93 117.17 42.08 C 117.68 36.87 118.49 30.79 114.83 26.47 L 113.00 26.87 C 112.61 27.08 112.22 27.30 111.84 27.53 C 109.96 26.55 107.80 26.79 105.76 26.94 L 106.40 26.45 Z"></path>
<path fill="#1a8933" d=" M 396.11 26.01 C 396.42 24.40 398.64 25.72 398.25 26.93 C 397.84 28.54 395.67 27.31 396.11 26.01 Z"></path>
<path fill="#1a8933" d=" M 485.63 28.70 C 487.16 27.25 488.74 25.83 490.35 24.45 C 494.39 28.40 499.27 31.26 503.86 34.50 C 503.43 35.08 502.57 36.26 502.15 36.84 L 501.97 36.72 C 500.09 35.33 498.01 34.29 495.94 33.21 C 493.38 31.85 491.49 29.41 488.65 28.56 L 488.45 28.49 L 488.28 28.50 C 487.61 28.55 486.29 28.65 485.63 28.70 Z"></path>
<path fill="#00fe00" d=" M 105.76 26.94 C 107.80 26.79 109.96 26.55 111.84 27.53 C 111.71 28.16 111.46 29.40 111.33 30.02 C 111.93 29.93 113.12 29.75 113.72 29.65 C 114.15 31.98 115.64 34.75 113.98 36.91 C 112.95 37.48 111.91 38.00 110.84 38.49 L 110.50 38.63 L 110.37 38.91 C 109.61 40.47 108.82 42.13 108.92 43.91 C 109.85 45.46 111.08 46.79 112.25 48.15 C 111.16 48.73 110.09 49.35 109.03 49.97 C 108.37 49.20 107.72 48.44 107.06 47.67 C 106.47 48.19 105.30 49.24 104.72 49.76 C 104.43 49.14 103.87 47.90 103.58 47.28 C 102.78 47.58 101.97 47.89 101.17 48.20 C 101.78 49.55 102.41 50.89 103.04 52.23 C 104.22 51.54 105.42 50.88 106.63 50.24 C 106.04 52.53 104.73 54.50 103.45 56.45 C 104.28 57.41 105.11 58.36 105.96 59.31 C 106.70 57.48 107.44 55.64 108.17 53.80 C 108.73 53.89 109.85 54.05 110.41 54.13 C 111.16 57.74 112.34 61.30 112.30 65.02 C 112.59 65.30 113.18 65.85 113.47 66.13 C 113.84 64.62 114.21 63.11 114.56 61.59 C 116.05 60.27 117.87 60.18 119.65 61.01 C 118.81 62.39 117.95 63.76 117.07 65.12 C 117.15 66.28 117.24 67.44 117.34 68.60 C 117.85 68.97 118.88 69.69 119.40 70.05 C 118.58 71.27 117.76 72.48 116.96 73.71 C 117.92 73.52 119.84 73.14 120.79 72.95 C 121.11 73.48 121.73 74.53 122.04 75.06 C 120.53 77.84 118.45 80.27 115.91 82.17 C 116.01 80.31 116.19 78.45 116.42 76.60 C 115.79 76.20 114.54 75.39 113.91 74.99 C 112.91 76.26 111.94 77.56 111.22 79.01 C 108.54 78.78 105.87 78.50 103.20 78.17 C 105.44 73.37 102.81 68.46 101.21 63.93 C 99.07 63.63 95.34 64.38 95.42 61.13 C 94.36 61.79 93.30 62.45 92.23 63.10 C 90.27 61.43 88.23 59.85 86.02 58.52 C 86.45 59.14 87.31 60.38 87.73 60.99 C 86.91 61.12 85.27 61.36 84.45 61.48 C 84.55 59.22 84.58 56.93 84.11 54.70 C 84.31 53.84 84.51 52.98 84.72 52.11 C 83.89 53.08 83.06 54.05 82.22 55.01 C 82.78 56.19 83.33 57.38 83.89 58.56 C 82.29 59.28 80.68 60.00 79.08 60.73 C 78.56 59.57 78.04 58.40 77.57 57.22 C 77.36 55.28 76.79 53.41 76.01 51.63 C 75.73 51.19 75.17 50.30 74.89 49.85 C 74.42 50.16 73.50 50.78 73.04 51.09 C 72.14 50.42 71.44 48.87 70.10 49.24 C 65.88 49.75 61.74 50.84 57.46 50.83 C 58.08 49.65 58.73 48.49 59.39 47.33 C 61.60 43.42 63.70 38.31 68.87 37.86 C 69.37 37.69 70.37 37.35 70.87 37.17 C 70.64 36.81 70.17 36.08 69.94 35.72 C 71.79 35.62 73.64 35.42 75.49 35.30 L 75.81 35.79 C 75.18 36.20 73.91 37.04 73.28 37.45 C 74.56 38.63 75.84 39.81 77.13 40.98 C 77.00 42.24 76.88 43.51 76.76 44.77 C 78.31 46.13 79.77 47.61 80.96 49.30 C 83.20 48.13 85.47 46.98 87.91 46.30 C 88.96 45.66 90.00 45.02 91.05 44.37 C 91.88 44.21 93.56 43.90 94.39 43.75 C 94.50 45.52 94.61 47.29 94.72 49.07 C 95.88 48.29 97.03 47.51 98.18 46.73 C 97.49 45.50 96.80 44.27 96.11 43.04 C 97.12 41.32 98.12 39.60 99.11 37.86 C 100.17 38.71 101.21 39.92 102.67 39.07 C 103.35 35.53 100.51 32.97 98.72 30.32 C 101.02 29.10 103.36 27.94 105.76 26.94 Z"></path>
<path fill="transparent" d=" M 384.11 26.24 C 385.44 25.86 387.11 27.76 386.77 29.07 C 385.39 29.50 383.80 27.55 384.11 26.24 Z"></path>
<path fill="#e4f8ee" d=" M 501.98 25.15 C 502.74 26.15 503.48 27.17 504.21 28.20 C 503.95 29.38 503.64 30.56 503.30 31.72 L 501.75 31.42 C 501.78 30.64 501.82 29.08 501.85 28.29 C 501.88 27.51 501.95 25.94 501.98 25.15 Z"></path>
<path fill="#5ca100" d=" M 70.42 31.78 C 71.60 30.31 72.76 28.83 73.92 27.34 C 74.20 27.72 74.76 28.48 75.05 28.86 C 74.60 29.43 73.71 30.57 73.27 31.14 C 73.41 31.45 73.71 32.07 73.86 32.38 C 68.32 33.96 61.24 34.78 58.42 40.57 C 56.77 38.91 57.30 36.47 57.11 34.37 C 61.30 31.83 65.95 30.22 70.74 29.25 L 70.42 31.78 Z"></path>
<path fill="transparent" d=" M 111.84 27.53 C 112.22 27.30 112.61 27.08 113.00 26.87 C 113.18 27.57 113.54 28.96 113.72 29.65 C 113.12 29.75 111.93 29.93 111.33 30.02 C 111.46 29.40 111.71 28.16 111.84 27.53 Z"></path>
<path fill="#0be302" d=" M 113.00 26.87 L 114.83 26.47 C 118.49 30.79 117.68 36.87 117.17 42.08 C 115.76 43.00 114.26 43.83 113.03 45.00 C 113.20 46.19 113.59 47.45 112.25 48.15 C 111.08 46.79 109.85 45.46 108.92 43.91 C 108.82 42.13 109.61 40.47 110.37 38.91 C 110.49 38.81 110.72 38.59 110.84 38.49 C 111.91 38.00 112.95 37.48 113.98 36.91 C 115.64 34.75 114.15 31.98 113.72 29.65 C 113.54 28.96 113.18 27.57 113.00 26.87 Z"></path>
<path fill="#c1e3ca" d=" M 495.23 27.07 C 495.76 27.62 495.76 27.62 495.23 27.07 Z"></path>
<path fill="transparent" d=" M 390.28 31.66 C 388.56 31.19 388.72 27.46 390.84 28.40 C 391.68 29.22 391.64 31.44 390.28 31.66 Z"></path>
<path fill="#5fa970" d=" M 488.45 28.49 L 488.65 28.56 C 488.56 28.54 488.37 28.52 488.28 28.50 L 488.45 28.49 Z"></path>
<path fill="#006e23" d=" M 488.65 28.56 C 491.49 29.41 493.38 31.85 495.94 33.21 C 498.01 34.29 500.09 35.33 501.97 36.72 C 500.41 38.55 498.64 40.20 496.68 41.58 C 498.26 39.71 499.60 37.67 497.64 35.66 C 496.93 37.59 496.42 39.58 496.24 41.63 C 493.11 43.04 490.72 45.25 489.22 48.33 C 485.75 46.51 481.58 49.68 480.62 53.04 C 480.18 52.79 479.30 52.30 478.86 52.05 C 478.68 53.37 478.07 54.48 477.05 55.38 C 476.13 54.96 475.22 54.55 474.31 54.14 C 473.73 55.23 473.15 56.33 472.57 57.42 C 468.17 54.33 463.23 52.17 458.11 50.59 C 456.78 49.67 455.35 50.76 455.22 52.20 C 451.59 53.39 447.81 54.00 444.00 54.26 C 443.56 52.74 443.35 51.17 443.39 49.59 C 441.92 49.13 440.49 48.57 439.09 47.95 C 439.77 45.75 440.06 43.37 441.21 41.36 C 442.30 40.51 443.50 39.82 444.67 39.08 C 444.03 38.72 442.74 37.99 442.10 37.62 C 442.44 37.43 443.11 37.04 443.45 36.84 C 444.64 34.03 446.11 31.35 447.62 28.69 C 450.79 28.92 453.98 29.11 457.17 29.23 C 457.18 29.92 457.21 31.31 457.23 32.01 C 456.49 33.25 455.77 34.49 455.05 35.73 C 455.62 38.72 456.15 41.72 456.67 44.73 C 456.02 45.00 454.70 45.55 454.05 45.83 C 454.91 46.77 455.78 47.71 456.65 48.64 C 462.37 45.82 467.72 42.36 472.02 37.58 C 473.55 38.05 475.07 38.52 476.61 38.99 C 475.36 40.49 475.45 42.39 476.26 44.06 C 477.56 42.56 478.82 41.04 480.10 39.52 C 479.72 38.92 479.35 38.32 478.98 37.73 C 480.76 37.06 482.51 36.33 484.25 35.56 C 483.15 34.56 482.03 33.57 480.92 32.59 C 481.67 31.35 482.40 30.10 483.15 28.85 C 483.77 28.81 485.01 28.74 485.63 28.70 C 486.29 28.65 487.61 28.55 488.28 28.50 C 488.37 28.52 488.56 28.54 488.65 28.56 Z"></path>
<path fill="#4fc67d" d=" M 504.21 28.20 C 505.68 28.85 507.15 29.54 508.65 30.13 C 508.36 31.89 508.12 33.66 507.86 35.42 C 507.01 34.56 506.21 33.68 505.35 32.85 L 504.69 32.24 C 504.34 32.11 503.65 31.85 503.30 31.72 C 503.64 30.56 503.95 29.38 504.21 28.20 Z"></path>
<path fill="#017520" d=" M 335.69 28.77 C 337.62 29.69 339.51 30.67 341.41 31.66 C 341.37 32.53 341.29 34.29 341.25 35.16 C 342.93 34.46 344.47 33.46 345.99 32.45 C 347.83 34.28 349.23 36.88 351.95 37.52 C 353.22 41.63 351.88 45.96 350.85 49.97 C 346.65 47.33 342.12 45.25 337.33 43.93 C 336.82 43.05 336.26 42.20 335.68 41.37 L 334.72 40.94 C 334.24 40.74 333.26 40.32 332.77 40.12 C 332.43 39.64 331.75 38.69 331.41 38.22 C 333.17 38.09 334.73 37.21 334.14 35.23 C 333.35 35.31 331.76 35.48 330.97 35.56 C 331.13 34.05 331.31 32.54 331.53 31.03 C 333.12 32.16 334.70 33.32 336.25 34.51 C 336.23 36.17 336.25 37.83 336.29 39.49 C 337.11 38.55 337.92 37.60 338.73 36.65 C 337.60 34.07 336.50 31.47 335.69 28.77 Z"></path>
<path fill="#92c49f" d=" M 394.98 29.39 C 398.30 29.52 393.49 32.40 394.98 29.39 Z"></path>
<path fill="#3dab5b" d=" M 119.38 31.66 C 121.28 31.21 123.17 30.76 125.09 30.40 C 123.47 31.63 121.25 32.74 123.04 35.02 C 122.29 34.97 120.78 34.86 120.03 34.81 C 119.84 33.75 119.65 32.70 119.38 31.66 Z"></path>
<path fill="transparent" d=" M 108.82 32.77 C 110.14 32.16 111.95 32.21 113.30 32.72 C 113.36 34.28 108.41 34.66 108.82 32.77 Z"></path>
<path fill="#19e100" d=" M 58.42 40.57 C 61.24 34.78 68.32 33.96 73.86 32.38 C 74.26 33.11 75.08 34.57 75.49 35.30 C 73.64 35.42 71.79 35.62 69.94 35.72 C 69.54 35.74 68.75 35.77 68.36 35.79 C 68.49 36.31 68.74 37.34 68.87 37.86 C 63.70 38.31 61.60 43.42 59.39 47.33 C 58.57 46.06 57.63 44.82 55.98 44.71 C 56.94 43.42 57.71 42.01 58.42 40.57 Z"></path>
<path fill="#f8f200" d=" M 294.98 42.03 C 293.80 38.84 294.92 35.51 295.51 32.33 C 297.01 32.39 298.51 32.46 300.02 32.54 C 302.91 34.97 306.66 35.85 310.12 37.18 C 310.29 40.42 311.30 43.89 309.83 46.98 C 310.58 49.14 311.35 51.31 312.13 53.46 C 311.52 53.96 310.30 54.95 309.69 55.44 C 308.81 54.03 308.62 52.38 308.44 50.76 C 308.20 52.49 307.92 54.21 307.62 55.94 C 309.71 55.76 311.86 55.71 313.70 54.56 C 313.10 56.16 312.57 57.78 312.12 59.42 C 311.01 58.18 309.60 57.71 307.98 58.24 C 308.23 58.70 308.74 59.61 309.00 60.06 C 309.75 59.96 311.26 59.77 312.02 59.67 L 310.01 62.75 C 305.44 62.65 300.48 61.61 297.38 57.97 C 296.30 56.23 296.85 54.03 295.83 52.25 C 294.10 49.04 296.25 45.36 294.98 42.03 Z"></path>
<path fill="transparent" d=" M 106.99 34.30 C 108.21 34.90 108.15 35.58 106.81 36.34 C 105.55 35.72 105.61 35.04 106.99 34.30 Z"></path>
<path fill="#c9e2d0" d=" M 476.19 34.19 C 477.81 33.70 478.37 34.27 477.86 35.89 C 476.23 36.38 475.67 35.81 476.19 34.19 Z"></path>
<path fill="#67ad7a" d=" M 346.31 35.27 C 346.83 35.80 346.83 35.80 346.31 35.27 Z"></path>
<path fill="transparent" d=" M 68.36 35.79 C 68.75 35.77 69.54 35.74 69.94 35.72 C 70.17 36.08 70.64 36.81 70.87 37.17 C 70.37 37.35 69.37 37.69 68.87 37.86 C 68.74 37.34 68.49 36.31 68.36 35.79 Z"></path>
<path fill="#519a16" d=" M 326.66 36.71 C 327.28 37.15 328.52 38.02 329.13 38.45 C 329.70 38.39 330.84 38.28 331.41 38.22 C 331.75 38.69 332.43 39.64 332.77 40.12 C 333.26 40.32 334.24 40.74 334.72 40.94 C 334.74 43.42 335.93 45.52 338.05 46.80 C 337.87 46.09 337.51 44.65 337.33 43.93 C 342.12 45.25 346.65 47.33 350.85 49.97 C 351.95 50.66 353.03 51.40 354.12 52.12 C 353.83 53.13 353.55 54.15 353.27 55.16 C 352.81 55.46 351.90 56.06 351.44 56.36 C 350.59 58.80 349.16 61.19 349.36 63.86 C 348.43 62.73 347.52 61.58 346.61 60.44 C 347.49 58.25 348.46 55.35 346.63 53.38 C 343.39 50.01 338.81 48.47 334.59 46.72 C 334.29 45.61 334.02 44.49 333.75 43.38 C 332.12 43.01 330.49 42.64 328.85 42.29 C 327.98 40.49 327.19 38.65 326.66 36.71 Z"></path>
<path fill="#54f851" d=" M 110.50 38.63 L 110.84 38.49 C 110.72 38.59 110.49 38.81 110.37 38.91 L 110.50 38.63 Z"></path>
<path fill="#9fcbaa" d=" M 342.02 38.14 C 345.30 38.24 340.45 41.19 342.02 38.14 Z"></path>
<path fill="#7dfc7b" d=" M 67.12 39.31 C 68.72 38.80 69.31 39.36 68.87 40.99 C 67.26 41.50 66.67 40.94 67.12 39.31 Z"></path>
<path fill="#f3e403" d=" M 324.11 43.06 C 324.72 42.34 325.34 41.62 325.98 40.91 C 326.60 43.47 326.26 46.08 325.74 48.62 C 325.14 48.56 323.95 48.44 323.35 48.38 C 323.88 46.65 324.38 44.88 324.11 43.06 Z"></path>
<path fill="transparent" d=" M 334.72 40.94 L 335.68 41.37 C 336.26 42.20 336.82 43.05 337.33 43.93 C 337.51 44.65 337.87 46.09 338.05 46.80 C 335.93 45.52 334.74 43.42 334.72 40.94 Z"></path>
<path fill="transparent" d=" M 69.85 45.05 C 70.85 44.30 71.56 41.46 73.11 43.01 C 71.39 44.14 71.99 46.15 71.80 47.80 C 71.16 46.88 70.50 45.96 69.85 45.05 Z"></path>
<path fill="transparent" d=" M 105.84 42.38 C 106.26 42.36 107.11 42.34 107.54 42.32 C 108.99 43.86 105.53 45.33 105.47 43.17 L 105.84 42.38 Z"></path>
<path fill="#fbf86b" d=" M 302.21 42.25 C 303.69 41.68 304.14 42.09 303.55 43.48 C 302.07 44.05 301.62 43.64 302.21 42.25 Z"></path>
<path fill="#97c69f" d=" M 341.28 42.22 C 341.79 42.82 341.79 42.82 341.28 42.22 Z"></path>
<path fill="#78b688" d=" M 349.29 42.32 C 350.59 43.02 350.53 43.66 349.10 44.23 C 347.79 43.54 347.86 42.90 349.29 42.32 Z"></path>
<path fill="#fefddb" d=" M 298.02 44.37 C 301.33 44.49 296.51 47.40 298.02 44.37 Z"></path>
<path fill="transparent" d=" M 442.18 45.10 C 443.83 44.83 447.27 46.37 446.72 43.15 C 446.90 43.73 447.24 44.89 447.42 45.46 C 445.85 45.36 445.23 46.84 444.21 47.55 C 443.49 46.77 442.85 45.92 442.18 45.10 Z"></path>
<path fill="#b8c70b" d=" M 328.63 46.44 C 329.34 45.78 330.06 45.11 330.79 44.46 C 331.15 46.71 331.32 49.21 333.21 50.79 C 333.97 49.53 334.43 48.17 334.59 46.72 C 338.81 48.47 343.39 50.01 346.63 53.38 C 348.46 55.35 347.49 58.25 346.61 60.44 C 345.87 61.04 344.40 62.25 343.67 62.86 C 342.65 61.48 341.65 60.09 340.87 58.57 C 339.92 56.74 339.26 54.66 337.66 53.27 C 335.67 51.49 332.89 51.29 330.41 50.68 C 329.83 49.26 329.23 47.85 328.63 46.44 Z"></path>
<path fill="#007520" d=" M 408.02 49.89 C 409.71 48.43 411.35 46.88 412.95 45.31 C 417.86 48.09 421.75 52.26 426.08 55.81 C 425.75 59.95 424.21 64.22 425.52 68.33 C 424.36 68.92 423.01 69.14 421.75 69.33 C 423.07 70.06 424.38 70.78 425.74 71.42 C 423.26 72.23 424.20 74.69 424.21 76.60 C 418.45 74.95 412.28 74.45 406.95 71.52 C 407.37 70.91 408.20 69.69 408.62 69.08 C 407.83 68.11 406.54 68.91 405.56 68.88 C 406.33 65.68 407.59 62.40 406.80 59.07 C 407.46 57.62 408.13 56.18 408.81 54.73 C 410.24 56.81 411.56 55.25 412.81 53.96 C 411.41 53.59 410.01 53.22 408.61 52.86 C 409.41 51.68 410.22 50.50 411.02 49.32 C 410.27 49.46 408.77 49.75 408.02 49.89 Z"></path>
<path fill="transparent" d=" M 463.24 49.18 C 460.18 51.64 460.90 45.34 463.64 46.31 C 463.90 47.30 463.77 48.26 463.24 49.18 Z"></path>
<path fill="#00eeed" d=" M 538.23 49.51 C 539.91 48.23 541.46 46.79 542.99 45.32 C 547.28 47.75 550.74 51.31 554.52 54.42 C 555.99 55.31 555.98 57.02 556.08 58.53 L 555.60 58.38 C 549.98 56.86 544.71 54.18 540.44 50.20 C 539.88 50.02 538.78 49.68 538.23 49.51 Z"></path>
<path fill="#fe04f4" d=" M 209.41 46.63 C 212.50 47.69 215.73 48.30 219.01 48.19 C 220.06 49.05 221.11 49.92 222.16 50.78 C 224.13 50.54 226.10 50.70 228.00 51.30 C 228.59 50.52 229.18 49.73 229.76 48.95 C 230.60 50.36 231.82 50.66 233.41 49.86 C 234.65 50.18 235.30 51.58 236.28 52.33 C 237.57 51.76 238.86 51.18 240.15 50.60 C 240.78 52.21 241.23 53.97 242.54 55.19 C 242.42 55.54 242.19 56.23 242.08 56.57 C 237.10 57.97 231.98 56.60 226.99 56.00 C 222.91 55.40 218.77 55.34 214.68 54.90 C 214.51 54.46 214.17 53.57 214.00 53.12 C 213.17 54.28 212.35 55.43 211.54 56.60 C 211.35 54.41 211.12 52.22 210.90 50.04 C 210.29 50.21 209.06 50.56 208.45 50.74 C 208.96 49.42 209.33 48.05 209.41 46.63 Z"></path>
<path fill="#f3e403" d=" M 324.79 53.19 C 325.78 50.79 327.21 48.61 328.63 46.44 C 329.23 47.85 329.83 49.26 330.41 50.68 C 332.89 51.29 335.67 51.49 337.66 53.27 C 339.26 54.66 339.92 56.74 340.87 58.57 C 338.66 59.20 336.47 59.85 334.29 60.53 C 333.03 59.78 331.61 59.40 330.19 59.14 C 330.33 59.62 330.61 60.57 330.76 61.05 C 327.21 62.73 323.68 64.45 320.15 66.15 C 319.95 65.32 319.75 64.48 319.57 63.65 C 320.81 62.09 322.03 60.53 323.24 58.94 C 322.22 56.66 321.58 54.23 321.94 51.72 C 323.37 53.14 324.81 54.55 326.31 55.90 C 327.38 54.56 329.41 53.31 328.10 51.40 C 327.00 52.01 325.90 52.62 324.79 53.19 Z"></path>
<path fill="#00e300" d=" M 57.46 50.83 C 61.74 50.84 65.88 49.75 70.10 49.24 C 71.44 48.87 72.14 50.42 73.04 51.09 C 73.86 52.04 74.85 52.22 76.01 51.63 C 76.79 53.41 77.36 55.28 77.57 57.22 C 76.82 58.67 76.25 60.20 75.97 61.80 C 75.75 62.06 75.32 62.58 75.10 62.84 C 71.77 63.59 68.40 64.14 65.12 65.08 C 64.86 65.29 64.36 65.72 64.10 65.93 C 61.37 67.58 61.57 70.84 61.71 73.60 C 61.28 74.18 60.42 75.35 59.99 75.93 C 59.33 75.15 58.67 74.38 58.01 73.60 C 58.78 71.36 59.51 69.10 60.24 66.85 C 59.67 66.28 58.53 65.15 57.96 64.58 L 59.31 63.84 C 60.51 63.20 61.71 62.55 62.92 61.92 L 63.57 61.86 C 66.82 61.69 70.45 61.27 72.72 58.64 C 72.60 57.35 73.39 55.67 72.37 54.64 L 71.95 54.41 L 71.29 54.17 C 69.25 53.04 66.93 53.38 64.72 53.64 C 64.09 53.77 62.83 54.04 62.20 54.17 C 60.77 54.39 59.33 54.54 57.90 54.74 C 58.25 53.39 58.11 52.08 57.46 50.83 Z"></path>
<path fill="transparent" d=" M 372.32 54.71 C 369.96 52.42 373.15 50.36 374.11 48.40 C 373.76 50.56 373.66 52.88 372.32 54.71 Z"></path>
<path fill="transparent" d=" M 73.04 51.09 C 73.50 50.78 74.42 50.16 74.89 49.85 C 75.17 50.30 75.73 51.19 76.01 51.63 C 74.85 52.22 73.86 52.04 73.04 51.09 Z"></path>
<path fill="#359e35" d=" M 133.88 50.59 C 137.05 48.07 140.99 50.20 144.46 50.77 C 146.68 50.94 146.83 53.64 147.84 55.12 C 143.27 53.39 138.78 51.20 133.88 50.59 Z"></path>
<path fill="transparent" d=" M 302.09 52.07 C 301.81 50.67 302.35 50.14 303.72 50.46 C 303.99 51.87 303.44 52.40 302.09 52.07 Z"></path>
<path fill="transparent" d=" M 455.22 52.20 C 455.35 50.76 456.78 49.67 458.11 50.59 C 457.78 51.15 457.11 52.27 456.78 52.83 C 456.39 52.67 455.61 52.36 455.22 52.20 Z"></path>
<path fill="#14dc14" d=" M 132.92 50.46 L 133.88 50.59 C 138.78 51.20 143.27 53.39 147.84 55.12 C 147.54 56.00 146.93 57.77 146.62 58.65 C 143.07 56.00 138.79 54.50 134.39 54.12 L 134.18 54.09 C 133.75 52.88 133.33 51.67 132.92 50.46 Z"></path>
<path fill="#006e23" d=" M 439.48 51.20 L 440.25 50.85 C 440.54 51.16 441.13 51.78 441.42 52.09 C 441.14 52.39 440.58 53.00 440.30 53.30 L 439.53 52.91 C 439.52 52.48 439.50 51.63 439.48 51.20 Z"></path>
<path fill="#007520" d=" M 458.11 50.59 C 463.23 52.17 468.17 54.33 472.57 57.42 C 473.14 59.45 474.21 61.26 475.35 63.01 C 475.95 62.89 477.15 62.64 477.75 62.52 C 481.99 66.00 484.90 70.62 487.27 75.49 C 488.11 76.89 487.42 78.53 487.47 80.05 C 488.09 79.95 489.34 79.76 489.96 79.67 C 490.43 81.14 490.94 82.60 491.49 84.05 C 490.61 84.82 489.66 85.52 488.75 86.24 L 490.78 86.10 L 490.56 87.49 C 490.99 86.68 491.42 85.88 491.86 85.07 C 491.91 87.98 495.01 88.93 496.88 90.51 C 496.43 91.38 495.99 92.25 495.56 93.12 C 496.97 93.66 498.16 94.59 499.26 95.63 C 499.67 95.61 500.48 95.56 500.89 95.53 C 499.55 96.29 497.86 96.65 496.88 97.89 C 496.01 99.05 495.18 100.25 494.35 101.44 C 494.57 99.63 494.88 97.83 495.21 96.03 C 494.78 95.77 493.94 95.25 493.51 94.99 C 492.63 95.82 491.75 96.65 490.87 97.48 C 491.53 98.70 492.21 99.91 492.88 101.13 C 490.90 101.78 488.95 102.49 487.02 103.25 C 487.61 102.10 488.21 100.96 488.82 99.81 C 487.78 97.40 486.67 95.01 485.57 92.63 C 482.75 94.47 481.22 97.46 480.38 100.64 C 480.04 100.38 479.35 99.86 479.01 99.61 C 479.73 97.42 480.72 95.33 481.90 93.36 C 479.35 92.53 477.19 88.74 474.44 91.19 C 475.48 89.18 474.95 88.41 472.84 88.89 C 473.26 87.68 473.85 86.55 474.51 85.46 C 472.38 82.13 470.94 78.44 469.16 74.93 C 466.78 76.34 468.73 78.83 468.96 80.76 C 467.77 79.50 466.58 78.25 465.38 77.00 C 465.77 76.58 466.54 75.73 466.93 75.30 C 465.45 74.31 463.73 73.74 462.34 72.62 C 460.78 69.96 458.82 67.57 456.78 65.27 C 456.32 65.67 455.39 66.48 454.93 66.88 C 454.98 69.09 453.80 71.64 455.71 73.41 C 455.64 74.03 455.51 75.27 455.44 75.89 C 454.87 75.70 453.72 75.33 453.15 75.14 C 452.26 76.40 451.38 77.66 450.52 78.94 C 451.58 81.82 452.61 84.72 454.18 87.37 C 449.97 85.68 445.96 83.58 441.83 81.72 C 442.26 80.72 442.67 79.72 443.06 78.70 C 441.38 79.53 439.93 80.67 439.68 82.64 C 438.79 82.18 437.93 81.68 437.05 81.23 C 437.09 78.61 437.07 75.98 436.98 73.35 C 438.33 74.61 439.40 73.62 440.36 72.51 C 439.12 71.33 438.00 70.03 437.01 68.65 C 437.14 67.88 437.40 66.36 437.53 65.60 C 437.81 66.20 438.38 67.38 438.66 67.98 C 439.18 67.56 440.22 66.74 440.74 66.32 C 440.15 65.62 439.51 64.97 438.91 64.30 C 440.14 61.87 439.03 59.29 438.51 56.84 C 439.27 56.25 440.05 55.69 440.86 55.15 C 441.86 56.20 442.80 57.33 443.89 58.30 C 443.98 56.96 444.01 55.61 444.00 54.26 C 447.81 54.00 451.59 53.39 455.22 52.20 C 455.61 52.36 456.39 52.67 456.78 52.83 C 457.11 52.27 457.78 51.15 458.11 50.59 Z"></path>
<path fill="#00cac6" d=" M 540.44 50.20 C 544.71 54.18 549.98 56.86 555.60 58.38 C 555.43 60.01 555.23 61.64 555.00 63.26 C 549.75 62.04 544.76 59.82 540.73 56.18 C 541.18 55.60 542.10 54.45 542.55 53.88 C 541.26 53.55 539.97 53.22 538.69 52.89 C 539.13 52.22 540.00 50.87 540.44 50.20 Z"></path>
<path fill="transparent" d=" M 82.22 55.01 C 83.06 54.05 83.89 53.08 84.72 52.11 C 84.51 52.98 84.31 53.84 84.11 54.70 C 84.58 56.93 84.55 59.22 84.45 61.48 C 85.27 61.36 86.91 61.12 87.73 60.99 C 87.31 60.38 86.45 59.14 86.02 58.52 C 88.23 59.85 90.27 61.43 92.23 63.10 C 93.30 62.45 94.36 61.79 95.42 61.13 C 95.34 64.38 99.07 63.63 101.21 63.93 C 102.81 68.46 105.44 73.37 103.20 78.17 C 102.87 79.30 102.53 80.42 102.20 81.55 C 101.55 82.28 100.90 83.01 100.25 83.74 C 99.09 85.02 97.89 86.26 96.63 87.43 C 94.84 89.00 92.94 90.45 90.93 91.74 C 87.26 93.53 82.77 95.12 79.01 92.64 C 78.38 91.21 77.75 89.76 76.67 88.61 C 76.75 87.69 76.83 86.78 76.91 85.87 C 76.61 85.27 76.02 84.08 75.72 83.48 C 76.00 82.94 76.54 81.86 76.82 81.31 C 76.59 80.66 76.36 80.00 76.14 79.35 C 76.54 78.61 76.95 77.87 77.36 77.13 C 76.50 74.96 76.71 72.68 77.30 70.47 C 76.70 69.74 76.11 69.01 75.51 68.28 C 76.45 67.43 77.40 66.58 78.33 65.72 C 76.66 65.46 74.99 65.22 73.32 64.98 C 73.77 64.44 74.65 63.37 75.10 62.84 C 75.32 62.58 75.75 62.06 75.97 61.80 C 76.25 60.20 76.82 58.67 77.57 57.22 C 78.04 58.40 78.56 59.57 79.08 60.73 C 80.68 60.00 82.29 59.28 83.89 58.56 C 83.33 57.38 82.78 56.19 82.22 55.01 Z"></path>
<path fill="#fc16d6" d=" M 245.48 51.50 C 246.72 52.88 247.94 54.29 249.14 55.72 C 250.02 55.36 250.92 55.02 251.82 54.70 C 252.07 55.35 252.57 56.64 252.82 57.29 C 245.45 61.00 236.99 61.00 229.15 58.95 C 228.67 58.19 228.18 57.44 227.69 56.69 C 227.61 57.50 227.43 59.14 227.35 59.95 C 223.35 58.93 219.22 58.60 215.11 58.54 C 214.95 57.33 214.80 56.12 214.68 54.90 C 218.77 55.34 222.91 55.40 226.99 56.00 C 231.98 56.60 237.10 57.97 242.08 56.57 C 242.19 56.23 242.42 55.54 242.54 55.19 L 242.87 54.16 C 243.74 53.27 244.61 52.38 245.48 51.50 Z"></path>
<path fill="#00c100" d=" M 64.72 53.64 C 66.93 53.38 69.25 53.04 71.29 54.17 C 71.39 54.23 71.58 54.35 71.67 54.41 L 71.95 54.41 L 72.37 54.64 C 73.39 55.67 72.60 57.35 72.72 58.64 C 70.45 61.27 66.82 61.69 63.57 61.86 C 64.65 61.60 66.08 59.38 64.23 59.18 C 63.24 59.74 62.80 60.66 62.92 61.92 C 61.71 62.55 60.51 63.20 59.31 63.84 C 58.93 61.32 56.15 58.57 58.56 56.35 C 57.92 56.34 56.65 56.33 56.01 56.32 C 56.48 55.93 57.43 55.13 57.90 54.74 C 59.33 54.54 60.77 54.39 62.20 54.17 C 61.06 57.54 66.09 56.49 64.72 53.64 Z"></path>
<path fill="#fe05f4" d=" M 187.72 55.98 C 190.81 56.15 193.20 54.01 195.97 53.06 C 198.47 53.56 200.52 55.18 202.62 56.52 C 196.78 57.79 191.17 60.04 186.11 63.21 C 184.77 60.67 187.51 60.00 189.17 58.97 C 188.68 57.97 188.20 56.97 187.72 55.98 Z"></path>
<path fill="transparent" d=" M 62.20 54.17 C 62.83 54.04 64.09 53.77 64.72 53.64 C 66.09 56.49 61.06 57.54 62.20 54.17 Z"></path>
<path fill="#94eb94" d=" M 71.29 54.17 L 71.95 54.41 L 71.67 54.41 C 71.58 54.35 71.39 54.23 71.29 54.17 Z"></path>
<path fill="#76fe76" d=" M 95.17 54.31 C 95.71 54.83 95.71 54.83 95.17 54.31 Z"></path>
<path fill="#00ff00" d=" M 134.39 54.12 C 138.79 54.50 143.07 56.00 146.62 58.65 C 148.76 61.10 150.59 63.82 152.13 66.69 C 151.44 66.49 150.07 66.08 149.38 65.88 L 149.94 67.17 C 149.82 67.57 149.59 68.38 149.47 68.78 C 150.68 68.57 151.92 68.40 153.03 67.83 C 154.13 70.44 155.31 73.09 154.61 75.99 C 156.08 76.94 157.40 76.75 158.55 75.41 C 157.38 78.79 159.90 81.95 160.66 85.15 C 155.54 85.46 150.50 84.51 145.43 84.08 C 144.27 79.80 143.18 75.49 141.55 71.36 C 141.16 71.72 140.38 72.44 139.99 72.80 C 140.73 66.07 136.08 60.40 134.39 54.12 Z"></path>
<path fill="#00a49d" d=" M 536.81 58.99 C 537.47 57.56 538.16 56.13 538.85 54.72 C 539.32 55.08 540.26 55.81 540.73 56.18 C 544.76 59.82 549.75 62.04 555.00 63.26 C 554.93 64.92 555.09 66.56 555.49 68.17 C 554.41 68.99 552.99 69.24 551.71 69.45 C 553.04 70.11 554.35 70.78 555.72 71.39 C 554.16 72.19 553.62 73.41 554.10 75.05 C 554.40 77.83 555.54 80.42 556.23 83.11 C 557.42 85.12 554.88 85.94 553.51 86.42 C 556.34 90.37 558.85 94.62 559.70 99.48 C 558.98 100.79 558.28 102.11 557.63 103.45 C 553.19 100.94 548.39 102.77 543.91 104.08 C 544.18 103.40 544.72 102.04 545.00 101.36 L 543.07 102.12 C 542.39 100.37 541.75 98.61 541.25 96.81 C 540.29 95.95 539.32 95.11 538.37 94.26 C 539.56 93.77 540.75 93.27 541.95 92.77 C 540.74 91.40 539.52 90.04 538.30 88.68 C 538.73 87.70 539.17 86.72 539.62 85.74 C 537.97 85.14 538.62 83.14 538.12 81.84 C 537.41 79.22 536.52 76.61 536.70 73.85 C 536.29 71.86 538.60 70.44 538.09 68.50 C 537.46 68.60 536.20 68.80 535.57 68.90 C 536.37 65.66 537.49 62.36 536.81 58.99 Z"></path>
<path fill="#f91bc6" d=" M 202.62 56.52 C 203.07 56.63 203.98 56.85 204.44 56.95 C 203.10 58.93 201.58 60.77 199.92 62.48 L 199.21 62.63 C 193.83 63.64 189.38 67.38 183.81 67.79 C 184.77 66.37 185.73 64.91 186.11 63.21 C 191.17 60.04 196.78 57.79 202.62 56.52 Z"></path>
<path fill="#4efe4e" d=" M 118.37 57.18 C 118.92 57.78 118.92 57.78 118.37 57.18 Z"></path>
<path fill="transparent" d=" M 227.69 56.69 C 228.18 57.44 228.67 58.19 229.15 58.95 C 229.33 59.55 229.70 60.75 229.88 61.35 C 229.00 60.95 228.17 60.44 227.35 59.95 C 227.43 59.14 227.61 57.50 227.69 56.69 Z"></path>
<path fill="#f631a1" d=" M 252.82 57.29 L 252.95 57.23 C 253.38 58.54 253.81 59.84 254.25 61.14 C 249.50 62.37 244.68 63.39 239.76 63.52 C 239.45 62.93 238.84 61.77 238.53 61.19 C 237.47 61.40 236.42 61.63 235.36 61.81 L 234.35 61.98 C 233.35 60.72 232.18 60.58 230.85 61.56 L 229.88 61.35 C 229.70 60.75 229.33 59.55 229.15 58.95 C 236.99 61.00 245.45 61.00 252.82 57.29 Z"></path>
<path fill="#77dc77" d=" M 68.28 58.32 C 68.87 58.80 68.87 58.80 68.28 58.32 Z"></path>
<path fill="#f0ca0b" d=" M 295.55 63.60 C 295.84 61.64 295.75 59.39 297.38 57.97 C 300.48 61.61 305.44 62.65 310.01 62.75 C 311.07 62.93 312.09 63.27 313.06 63.77 C 312.21 63.55 310.51 63.10 309.66 62.88 C 309.79 64.70 309.82 66.52 309.75 68.34 C 305.37 65.85 300.35 64.97 295.55 63.60 Z"></path>
<path fill="#c3deca" d=" M 376.97 58.03 C 377.52 58.31 378.63 58.85 379.19 59.12 C 378.94 59.67 378.43 60.76 378.17 61.30 C 377.22 60.42 376.81 59.33 376.97 58.03 Z"></path>
<path fill="transparent" d=" M 408.70 58.97 C 409.13 58.77 409.98 58.38 410.41 58.18 C 410.75 58.75 411.44 59.89 411.78 60.46 C 410.93 61.82 410.17 63.31 408.75 64.16 C 409.15 63.49 409.96 62.15 410.37 61.48 C 409.80 60.65 409.25 59.81 408.70 58.97 Z"></path>
<path fill="transparent" d=" M 539.32 58.21 C 540.61 58.23 541.14 59.51 541.94 60.31 C 541.05 61.69 540.15 63.09 538.92 64.20 C 539.34 63.25 539.79 62.32 540.25 61.39 C 539.37 60.44 539.06 59.38 539.32 58.21 Z"></path>
<path fill="#42d540" d=" M 64.23 59.18 C 66.08 59.38 64.65 61.60 63.57 61.86 L 62.92 61.92 C 62.80 60.66 63.24 59.74 64.23 59.18 Z"></path>
<path fill="#f04073" d=" M 211.15 59.26 C 212.70 59.51 213.05 62.61 211.38 62.90 C 210.02 62.43 209.77 59.82 211.15 59.26 Z"></path>
<path fill="#fa5b90" d=" M 215.11 58.54 C 219.22 58.60 223.35 58.93 227.35 59.95 C 228.17 60.44 229.00 60.95 229.88 61.35 L 230.85 61.56 C 231.96 62.26 233.12 62.40 234.35 61.98 L 235.36 61.81 C 233.98 62.43 232.64 63.39 231.09 63.47 C 225.83 62.62 220.51 62.03 215.17 62.30 C 215.16 61.36 215.12 59.48 215.11 58.54 Z"></path>
<path fill="transparent" d=" M 330.19 59.14 C 331.61 59.40 333.03 59.78 334.29 60.53 C 334.14 62.49 331.75 62.08 330.76 61.05 C 330.61 60.57 330.33 59.62 330.19 59.14 Z"></path>
<path fill="#eda20f" d=" M 334.29 60.53 C 336.47 59.85 338.66 59.20 340.87 58.57 C 341.65 60.09 342.65 61.48 343.67 62.86 C 341.21 63.97 338.54 64.48 335.88 64.75 C 333.97 64.88 332.08 65.32 330.53 66.48 C 326.94 68.90 322.73 70.10 318.53 70.97 C 319.55 69.54 320.38 67.97 320.15 66.15 C 323.68 64.45 327.21 62.73 330.76 61.05 C 331.75 62.08 334.14 62.49 334.29 60.53 Z"></path>
<path fill="#246f21" d=" M 367.09 58.79 L 367.38 58.89 C 370.88 59.96 374.40 61.81 378.17 61.30 C 378.43 60.76 378.94 59.67 379.19 59.12 C 379.65 59.44 380.57 60.07 381.03 60.38 C 379.88 61.70 378.61 62.90 377.23 63.95 L 377.69 65.43 C 373.70 65.15 369.79 64.17 366.21 62.38 C 366.43 61.49 366.87 59.69 367.09 58.79 Z"></path>
<path fill="#fdbfdd" d=" M 230.85 61.56 C 232.18 60.58 233.35 60.72 234.35 61.98 C 233.12 62.40 231.96 62.26 230.85 61.56 Z"></path>
<path fill="#ee5753" d=" M 239.76 63.52 C 244.68 63.39 249.50 62.37 254.25 61.14 C 254.47 61.68 254.90 62.78 255.12 63.32 C 254.02 63.43 252.92 63.53 251.83 63.63 C 251.07 65.62 249.84 67.31 248.10 68.54 C 246.13 67.51 244.15 66.50 242.17 65.49 C 242.04 66.08 241.79 67.26 241.67 67.86 C 240.24 66.59 238.82 65.32 237.47 63.97 C 238.04 63.86 239.19 63.63 239.76 63.52 Z"></path>
<path fill="#e8641b" d=" M 343.67 62.86 C 344.40 62.25 345.87 61.04 346.61 60.44 C 347.52 61.58 348.43 62.73 349.36 63.86 L 350.42 65.14 C 350.11 65.50 349.49 66.21 349.18 66.57 C 350.28 68.32 351.56 69.94 352.72 71.64 C 351.87 73.03 351.01 74.43 350.17 75.82 C 350.60 76.40 351.45 77.55 351.88 78.13 C 351.01 81.44 352.33 84.52 354.20 87.21 C 354.26 86.56 354.37 85.27 354.43 84.62 C 357.58 83.75 359.34 80.44 360.35 77.54 C 361.41 74.24 363.24 71.27 364.66 68.12 C 367.76 68.87 370.84 69.70 373.92 70.49 C 374.53 71.61 375.14 72.73 375.77 73.84 C 374.89 76.72 374.02 79.59 373.17 82.47 C 371.49 81.06 369.20 77.35 366.72 79.31 C 367.32 79.83 368.51 80.86 369.11 81.38 C 368.80 81.72 368.16 82.40 367.85 82.75 C 368.93 83.50 370.02 84.25 371.11 85.01 C 370.95 86.27 370.79 87.52 370.65 88.78 C 369.60 88.07 368.55 87.37 367.51 86.67 C 367.36 87.53 367.05 89.26 366.90 90.13 C 366.48 89.75 365.64 89.01 365.21 88.64 C 363.74 89.99 362.27 91.34 360.82 92.72 C 359.65 92.87 358.49 93.02 357.34 93.19 L 357.56 94.40 L 355.98 94.08 C 356.26 93.61 356.83 92.67 357.12 92.20 C 357.84 92.21 359.30 92.22 360.03 92.23 C 359.42 91.70 358.21 90.62 357.61 90.09 C 355.39 91.13 353.42 92.60 351.36 93.89 C 347.49 92.34 343.84 90.09 341.59 86.48 C 338.59 79.57 336.76 72.22 335.88 64.75 C 338.54 64.48 341.21 63.97 343.67 62.86 Z"></path>
<path fill="#f38a3b" d=" M 213.04 62.95 C 213.57 62.79 214.64 62.46 215.17 62.30 C 220.51 62.03 225.83 62.62 231.09 63.47 C 231.22 64.34 231.46 66.09 231.59 66.96 C 227.15 66.59 222.67 65.68 218.24 66.61 C 216.75 65.07 214.82 64.09 213.04 62.95 Z"></path>
<path fill="#63742d" d=" M 366.01 62.30 L 366.21 62.38 C 369.79 64.17 373.70 65.15 377.69 65.43 C 377.94 66.00 378.45 67.15 378.70 67.73 C 377.44 67.52 376.18 67.32 374.93 67.13 C 374.42 66.83 373.40 66.22 372.89 65.91 C 370.38 65.83 367.88 65.53 365.37 65.48 C 365.58 64.42 365.79 63.36 366.01 62.30 Z"></path>
<path fill="#00fc06" d=" M 65.12 65.08 C 68.40 64.14 71.77 63.59 75.10 62.84 C 74.65 63.37 73.77 64.44 73.32 64.98 C 74.99 65.22 76.66 65.46 78.33 65.72 C 77.40 66.58 76.45 67.43 75.51 68.28 C 76.11 69.01 76.70 69.74 77.30 70.47 C 76.71 72.68 76.50 74.96 77.36 77.13 C 76.95 77.87 76.54 78.61 76.14 79.35 C 74.97 78.90 73.81 78.46 72.65 78.02 C 73.28 76.85 73.92 75.67 74.56 74.50 C 74.29 73.53 74.03 72.56 73.78 71.59 C 73.65 73.08 73.10 74.36 72.12 75.45 C 68.60 75.17 65.14 74.42 61.71 73.60 C 61.57 70.84 61.37 67.58 64.10 65.93 C 63.57 68.02 63.50 70.22 64.89 72.02 C 65.40 69.74 65.36 67.39 65.12 65.08 Z"></path>
<path fill="#9aff9a" d=" M 104.41 63.00 C 105.76 62.60 106.27 63.12 105.93 64.56 C 104.58 64.95 104.07 64.43 104.41 63.00 Z"></path>
<path fill="#f04073" d=" M 183.81 67.79 C 189.38 67.38 193.83 63.64 199.21 62.63 C 198.74 64.08 198.31 65.53 197.87 66.98 L 197.62 67.07 C 194.90 68.06 192.16 69.01 189.61 70.40 C 187.61 69.88 185.61 69.34 183.67 68.64 L 182.40 68.09 L 183.81 67.79 Z"></path>
<path fill="#e08416" d=" M 295.55 63.60 C 300.35 64.97 305.37 65.85 309.75 68.34 C 310.44 69.47 311.07 70.64 311.73 71.78 C 311.50 72.01 311.02 72.47 310.78 72.70 C 306.81 70.47 302.51 68.98 298.21 67.53 C 297.35 66.21 296.46 64.89 295.55 63.60 Z"></path>
<path fill="#f4c361" d=" M 328.27 64.29 C 328.76 64.81 328.76 64.81 328.27 64.29 Z"></path>
<path fill="transparent" d=" M 64.10 65.93 C 64.36 65.72 64.86 65.29 65.12 65.08 C 65.36 67.39 65.40 69.74 64.89 72.02 C 63.50 70.22 63.57 68.02 64.10 65.93 Z"></path>
<path fill="transparent" d=" M 70.33 64.77 C 71.97 64.88 71.53 67.65 70.14 67.90 C 68.61 67.70 69.12 65.13 70.33 64.77 Z"></path>
<path fill="#f8e798" d=" M 313.25 65.43 C 314.63 65.63 314.86 66.31 313.96 67.49 C 312.58 67.29 312.34 66.60 313.25 65.43 Z"></path>
<path fill="#9b681e" d=" M 365.37 65.48 C 367.88 65.53 370.38 65.83 372.89 65.91 L 373.12 66.74 C 373.57 66.84 374.48 67.04 374.93 67.13 C 376.18 67.32 377.44 67.52 378.70 67.73 C 379.16 69.02 379.62 70.32 380.09 71.61 C 378.20 70.55 375.65 67.50 373.92 70.49 C 370.84 69.70 367.76 68.87 364.66 68.12 C 364.84 67.46 365.19 66.14 365.37 65.48 Z"></path>
<path fill="transparent" d=" M 450.98 67.54 C 450.36 66.47 451.71 64.57 452.92 64.95 C 453.40 66.02 452.23 67.96 450.98 67.54 Z"></path>
<path fill="transparent" d=" M 107.28 66.59 C 108.37 65.24 111.00 67.08 109.21 68.23 C 107.95 69.64 105.53 67.99 107.28 66.59 Z"></path>
<path fill="#e8641b" d=" M 215.12 65.87 C 216.24 67.10 217.34 68.34 218.43 69.60 C 218.76 69.62 219.42 69.66 219.75 69.68 C 223.54 69.89 227.34 70.07 231.14 70.24 C 234.62 75.06 231.34 80.66 230.78 85.87 C 232.81 88.41 234.75 91.03 236.60 93.72 C 235.53 95.87 234.51 98.03 233.47 100.19 C 233.55 99.31 233.73 97.55 233.82 96.67 C 233.11 97.21 231.69 98.30 230.98 98.84 C 228.03 98.36 225.02 98.25 222.10 99.01 C 221.48 97.02 220.87 95.02 220.28 93.03 C 221.67 92.81 223.37 90.05 220.93 90.37 C 218.74 90.05 219.29 92.78 218.68 94.12 C 216.93 91.62 215.24 89.08 213.59 86.52 C 214.15 86.60 215.28 86.76 215.84 86.84 C 215.59 84.70 215.36 82.56 215.11 80.42 C 216.19 80.16 217.26 79.90 218.34 79.63 C 217.65 79.70 216.28 79.84 215.60 79.91 C 215.05 78.65 214.66 77.34 214.44 75.96 C 213.51 76.57 212.58 77.17 211.65 77.77 C 212.43 75.24 213.91 73.05 215.39 70.89 C 215.07 70.35 214.42 69.26 214.10 68.71 C 214.44 67.76 214.78 66.81 215.12 65.87 Z"></path>
<path fill="#ec7e1a" d=" M 218.24 66.61 C 222.67 65.68 227.15 66.59 231.59 66.96 C 231.47 67.78 231.25 69.42 231.14 70.24 C 227.34 70.07 223.54 69.89 219.75 69.68 C 219.37 68.91 218.62 67.38 218.24 66.61 Z"></path>
<path fill="#acac82" d=" M 372.89 65.91 C 373.40 66.22 374.42 66.83 374.93 67.13 C 374.48 67.04 373.57 66.84 373.12 66.74 L 372.89 65.91 Z"></path>
<path fill="#7be160" d=" M 57.16 67.00 C 60.19 65.45 57.24 70.35 57.16 67.00 Z"></path>
<path fill="#00ff00" d=" M 121.18 67.21 C 122.98 66.78 123.50 69.83 121.92 70.38 C 119.98 70.99 119.38 67.67 121.18 67.21 Z"></path>
<path fill="#ce5f1b" d=" M 189.61 70.40 C 192.16 69.01 194.90 68.06 197.62 67.07 C 195.60 72.15 191.92 76.35 187.86 79.91 C 186.41 80.76 186.72 82.62 186.01 83.94 C 184.86 86.08 183.33 87.98 181.84 89.89 C 180.80 85.05 182.26 80.28 184.51 76.03 C 186.09 74.05 187.79 72.16 189.61 70.40 Z"></path>
<path fill="#e8641b" d=" M 318.53 70.97 C 322.73 70.10 326.94 68.90 330.53 66.48 C 331.77 67.51 333.00 68.54 334.22 69.59 C 332.72 71.06 330.93 72.08 328.76 71.99 C 326.60 73.75 323.62 75.08 322.89 78.03 C 324.67 77.56 326.39 75.28 328.30 76.60 C 328.05 75.98 327.54 74.74 327.29 74.13 C 330.23 73.76 333.03 74.30 335.21 76.38 C 334.55 76.80 333.24 77.62 332.58 78.04 C 331.56 77.35 330.76 75.78 329.34 76.34 C 327.61 78.00 329.10 80.14 329.32 82.08 C 329.47 83.76 329.01 85.43 328.18 86.88 C 328.07 84.90 328.87 81.77 326.14 81.29 C 325.90 80.94 325.42 80.23 325.18 79.88 C 324.16 81.35 323.78 83.10 323.22 84.77 C 324.08 85.98 324.92 87.20 325.78 88.43 C 325.60 89.02 325.25 90.21 325.08 90.80 C 324.05 90.20 323.02 89.59 322.00 88.99 C 321.94 92.85 322.77 96.86 321.45 100.60 C 320.40 103.11 318.79 105.33 317.33 107.60 C 315.81 107.31 314.30 107.03 312.78 106.75 C 313.14 107.29 313.85 108.37 314.20 108.90 C 312.63 109.75 311.05 110.60 309.47 111.43 C 307.82 109.90 305.69 109.88 303.59 110.06 C 304.38 105.25 297.04 103.76 296.98 98.96 C 295.55 88.49 292.39 77.27 297.31 67.22 L 298.21 67.53 C 302.51 68.98 306.81 70.47 310.78 72.70 C 309.17 74.48 307.42 76.15 306.00 78.10 C 306.72 81.03 308.88 83.38 310.27 86.03 C 309.66 85.64 308.44 84.87 307.83 84.48 C 307.81 85.44 307.76 87.34 307.73 88.30 C 309.38 87.92 311.06 87.31 312.78 87.68 C 313.56 83.31 313.84 78.46 316.60 74.80 C 315.62 73.81 314.64 72.83 313.67 71.84 C 314.98 71.58 316.30 71.35 317.63 71.17 L 318.53 70.97 Z"></path>
<path fill="#c5e0cc" d=" M 460.15 67.19 C 460.79 67.72 460.79 67.72 460.15 67.19 Z"></path>
<path fill="#fbeedd" d=" M 306.40 68.06 C 309.40 66.50 306.60 71.37 306.40 68.06 Z"></path>
<path fill="#748b43" d=" M 180.49 68.85 C 181.67 69.50 182.98 70.05 183.73 71.25 L 183.84 71.89 C 183.01 72.79 182.19 73.70 181.40 74.63 C 180.34 73.83 179.29 73.03 178.24 72.24 C 179.00 71.12 179.75 69.99 180.49 68.85 Z"></path>
<path fill="#b15146" d=" M 183.67 68.64 C 185.61 69.34 187.61 69.88 189.61 70.40 C 187.79 72.16 186.09 74.05 184.51 76.03 C 184.32 74.64 184.08 73.27 183.84 71.89 L 183.73 71.25 C 183.72 70.59 183.69 69.29 183.67 68.64 Z"></path>
<path fill="#f2a476" d=" M 212.24 70.39 C 212.76 70.93 212.76 70.93 212.24 70.39 Z"></path>
<path fill="#fdf2ef" d=" M 192.41 71.29 C 193.00 71.88 193.00 71.88 192.41 71.29 Z"></path>
<path fill="#596d1f" d=" M 406.76 77.30 C 406.77 75.37 406.73 73.44 406.95 71.52 C 412.28 74.45 418.45 74.95 424.21 76.60 C 424.69 78.01 425.13 79.43 425.62 80.85 C 419.23 80.21 413.16 77.88 406.76 77.30 Z"></path>
<path fill="#c5decb" d=" M 421.03 71.19 C 424.31 71.51 419.41 74.18 421.03 71.19 Z"></path>
<path fill="#c3eae8" d=" M 551.01 71.23 C 554.31 71.43 549.46 74.24 551.01 71.23 Z"></path>
<path fill="transparent" d=" M 73.78 71.59 C 74.03 72.56 74.29 73.53 74.56 74.50 C 73.92 75.67 73.28 76.85 72.65 78.02 C 72.43 78.41 72.01 79.20 71.79 79.59 C 72.34 80.89 72.88 82.21 73.42 83.52 L 72.47 83.51 C 71.82 82.21 71.22 80.88 70.67 79.53 C 70.87 78.08 71.09 76.57 72.12 75.45 C 73.10 74.36 73.65 73.08 73.78 71.59 Z"></path>
<path fill="#957713" d=" M 183.84 71.89 C 184.08 73.27 184.32 74.64 184.51 76.03 C 182.26 80.28 180.80 85.05 181.84 89.89 L 181.86 90.12 C 181.61 90.56 181.10 91.45 180.85 91.90 C 179.63 90.58 178.43 89.25 177.12 88.03 L 176.14 87.50 C 177.77 83.16 179.26 78.75 181.40 74.63 C 182.19 73.70 183.01 72.79 183.84 71.89 Z"></path>
<path fill="#f5c7aa" d=" M 305.44 72.04 C 308.43 70.50 305.63 75.35 305.44 72.04 Z"></path>
<path fill="#3dcf4b" d=" M 57.45 72.95 L 58.01 73.60 C 58.67 74.38 59.33 75.15 59.99 75.93 C 59.29 76.87 58.59 77.82 57.85 78.74 L 56.84 78.83 C 56.53 77.60 56.22 76.38 55.91 75.15 C 56.30 74.60 57.06 73.50 57.45 72.95 Z"></path>
<path fill="#47c30b" d=" M 175.85 75.21 C 176.64 74.21 177.43 73.22 178.24 72.24 C 179.29 73.03 180.34 73.83 181.40 74.63 C 179.26 78.75 177.77 83.16 176.14 87.50 C 175.21 87.06 174.27 86.65 173.32 86.24 C 172.62 87.94 171.94 89.64 171.30 91.36 C 171.80 88.87 169.26 87.45 167.99 85.69 C 170.94 84.35 173.63 82.51 175.83 80.13 C 175.10 80.08 173.64 79.99 172.91 79.94 C 174.16 78.54 176.00 77.32 175.85 75.21 Z"></path>
<path fill="transparent" d=" M 215.35 73.39 C 217.03 73.32 218.16 76.14 217.68 77.59 C 215.90 77.72 214.86 74.87 215.35 73.39 Z"></path>
<path fill="transparent" d=" M 339.23 73.05 C 340.07 71.85 342.73 72.98 341.50 74.38 C 340.64 75.60 338.08 74.47 339.23 73.05 Z"></path>
<path fill="transparent" d=" M 346.15 75.78 C 346.88 74.90 347.25 73.49 348.53 73.28 C 348.66 74.43 348.76 75.57 348.83 76.73 C 347.93 76.41 347.04 76.10 346.15 75.78 Z"></path>
<path fill="#02e835" d=" M 59.99 75.93 C 60.42 75.35 61.28 74.18 61.71 73.60 C 65.14 74.42 68.60 75.17 72.12 75.45 C 71.09 76.57 70.87 78.08 70.67 79.53 C 66.38 79.83 62.10 79.34 57.85 78.74 C 58.59 77.82 59.29 76.87 59.99 75.93 Z"></path>
<path fill="#fadfd1" d=" M 231.02 75.02 C 231.56 75.60 231.56 75.60 231.02 75.02 Z"></path>
<path fill="#f4b694" d=" M 354.22 75.25 C 355.20 74.17 357.52 75.60 356.59 76.92 C 355.58 77.98 353.24 76.59 354.22 75.25 Z"></path>
<path fill="#00d76c" d=" M 71.79 79.59 C 72.01 79.20 72.43 78.41 72.65 78.02 C 73.81 78.46 74.97 78.90 76.14 79.35 C 76.36 80.00 76.59 80.66 76.82 81.31 C 76.54 81.86 76.00 82.94 75.72 83.48 C 75.15 83.49 73.99 83.51 73.42 83.52 C 72.88 82.21 72.34 80.89 71.79 79.59 Z"></path>
<path fill="#00f41d" d=" M 102.20 81.55 C 102.53 80.42 102.87 79.30 103.20 78.17 C 105.87 78.50 108.54 78.78 111.22 79.01 C 111.93 79.08 113.33 79.21 114.03 79.28 C 113.38 80.78 112.68 82.26 111.95 83.73 C 108.65 83.26 105.39 82.53 102.20 81.55 Z"></path>
<path fill="transparent" d=" M 154.43 81.43 C 154.58 80.27 154.74 79.11 154.91 77.95 C 155.42 79.46 156.41 80.64 157.77 81.46 C 156.66 81.44 155.54 81.43 154.43 81.43 Z"></path>
<path fill="#bc661c" d=" M 406.76 77.30 C 413.16 77.88 419.23 80.21 425.62 80.85 C 425.95 82.20 426.45 83.54 426.46 84.95 C 425.52 85.67 424.49 86.21 423.38 86.58 C 418.32 85.87 413.67 83.53 408.62 82.76 C 407.97 80.95 407.34 79.13 406.76 77.30 Z"></path>
<path fill="#017520" d=" M 454.28 78.13 C 455.83 78.64 455.50 81.30 454.86 82.48 C 453.05 82.38 452.59 78.93 454.28 78.13 Z"></path>
<path fill="#00ca8b" d=" M 56.84 78.83 L 57.85 78.74 C 62.10 79.34 66.38 79.83 70.67 79.53 C 71.22 80.88 71.82 82.21 72.47 83.51 L 73.42 83.52 C 73.99 83.51 75.15 83.49 75.72 83.48 C 76.02 84.08 76.61 85.27 76.91 85.87 C 73.24 85.35 69.58 84.71 65.87 84.60 C 65.50 83.63 65.12 82.66 64.74 81.69 C 64.36 82.16 63.58 83.10 63.20 83.57 C 61.35 83.25 59.51 82.92 57.67 82.60 C 57.39 81.34 57.12 80.08 56.84 78.83 Z"></path>
<path fill="transparent" d=" M 439.68 82.64 C 439.93 80.67 441.38 79.53 443.06 78.70 C 442.67 79.72 442.26 80.72 441.83 81.72 C 441.29 81.95 440.22 82.41 439.68 82.64 Z"></path>
<path fill="#00d76c" d=" M 100.25 83.74 C 100.90 83.01 101.55 82.28 102.20 81.55 C 105.39 82.53 108.65 83.26 111.95 83.73 C 111.56 84.42 111.17 85.11 110.79 85.81 C 111.09 86.34 111.68 87.40 111.98 87.94 C 111.18 88.90 110.38 89.88 109.58 90.84 C 109.72 89.26 109.87 87.67 110.00 86.08 C 109.58 85.98 108.74 85.78 108.32 85.67 C 105.63 85.02 102.94 84.39 100.25 83.74 Z"></path>
<path fill="#f4b591" d=" M 342.21 81.34 C 343.85 80.80 344.36 81.34 343.76 82.98 C 342.11 83.52 341.60 82.98 342.21 81.34 Z"></path>
<path fill="#2b721f" d=" M 435.92 83.04 C 434.04 82.97 436.00 79.97 437.05 81.23 C 437.93 81.68 438.79 82.18 439.68 82.64 C 440.22 82.41 441.29 81.95 441.83 81.72 C 445.96 83.58 449.97 85.68 454.18 87.37 C 454.95 88.73 455.07 90.25 454.74 91.79 C 450.42 90.38 446.43 88.17 442.32 86.28 C 440.14 85.29 437.99 84.24 435.92 83.04 Z"></path>
<path fill="transparent" d=" M 63.20 83.57 C 63.58 83.10 64.36 82.16 64.74 81.69 C 65.12 82.66 65.50 83.63 65.87 84.60 C 65.39 84.63 64.42 84.69 63.93 84.72 C 63.49 84.75 62.60 84.81 62.16 84.84 C 62.42 84.52 62.94 83.89 63.20 83.57 Z"></path>
<path fill="#e8641b" d=" M 265.63 83.84 C 266.47 82.98 267.31 82.12 268.15 81.27 C 271.50 83.39 272.87 87.34 276.12 89.58 C 275.85 88.64 275.29 86.78 275.01 85.84 C 276.53 85.89 278.05 85.96 279.56 86.05 C 278.45 87.06 277.31 88.05 276.16 89.01 C 279.61 92.47 280.24 97.54 281.86 101.96 C 279.58 101.10 275.39 101.74 275.28 98.43 C 272.89 98.14 270.46 97.92 268.11 98.56 C 266.69 96.93 265.31 95.28 263.91 93.64 C 263.20 93.47 261.78 93.13 261.07 92.96 C 262.66 92.31 264.35 92.25 266.06 92.38 C 264.87 91.15 263.27 90.62 261.70 90.14 C 261.84 89.36 262.13 87.81 262.27 87.03 L 260.21 87.07 C 260.89 85.09 263.32 85.09 264.38 83.40 C 264.69 83.51 265.32 83.73 265.63 83.84 Z"></path>
<path fill="#017520" d=" M 468.33 82.12 C 469.74 82.13 469.72 84.64 468.33 84.68 C 466.96 84.59 467.01 82.27 468.33 82.12 Z"></path>
<path fill="#03b3cc" d=" M 55.98 84.43 C 56.40 83.97 57.24 83.05 57.67 82.60 C 59.51 82.92 61.35 83.25 63.20 83.57 C 62.94 83.89 62.42 84.52 62.16 84.84 C 62.60 84.81 63.49 84.75 63.93 84.72 C 64.42 84.69 65.39 84.63 65.87 84.60 C 69.58 84.71 73.24 85.35 76.91 85.87 C 76.83 86.78 76.75 87.69 76.67 88.61 C 70.86 88.04 65.08 87.19 59.25 86.81 C 58.87 86.31 58.11 85.31 57.73 84.81 C 57.29 84.71 56.42 84.53 55.98 84.43 Z"></path>
<path fill="#02e835" d=" M 116.24 83.32 C 117.23 82.20 119.38 83.76 118.55 85.04 C 117.53 86.26 115.37 84.62 116.24 83.32 Z"></path>
<path fill="transparent" d=" M 218.41 83.35 C 220.08 83.36 219.29 85.82 217.96 85.71 C 216.40 85.64 217.16 83.27 218.41 83.35 Z"></path>
<path fill="transparent" d=" M 317.99 85.40 C 316.40 84.75 317.38 81.98 319.04 82.51 C 320.67 83.11 319.60 85.91 317.99 85.40 Z"></path>
<path fill="#e1641c" d=" M 408.62 82.76 C 413.67 83.53 418.32 85.87 423.38 86.58 C 426.52 90.29 428.81 94.68 429.69 99.49 C 428.97 100.78 428.27 102.09 427.61 103.42 C 423.19 100.84 418.41 102.77 413.96 104.08 C 414.11 103.68 414.42 102.87 414.57 102.47 C 412.21 101.52 411.82 98.94 411.25 96.80 C 410.31 95.96 409.36 95.13 408.42 94.30 C 409.58 93.74 410.78 93.18 411.95 92.62 C 410.72 91.31 409.50 90.01 408.27 88.70 C 408.80 87.55 409.34 86.40 409.89 85.25 C 409.45 85.37 408.56 85.62 408.11 85.74 C 408.24 84.99 408.50 83.51 408.62 82.76 Z"></path>
<path fill="#00d17f" d=" M 96.63 87.43 C 97.89 86.26 99.09 85.02 100.25 83.74 C 102.94 84.39 105.63 85.02 108.32 85.67 C 107.15 86.66 105.97 87.63 104.78 88.58 C 102.06 88.19 99.34 87.81 96.63 87.43 Z"></path>
<path fill="#00ef2a" d=" M 145.43 84.08 C 150.50 84.51 155.54 85.46 160.66 85.15 L 161.25 85.14 C 161.00 86.48 160.01 87.39 159.11 88.33 C 159.55 88.93 160.43 90.12 160.86 90.72 C 157.32 91.90 153.59 91.48 150.01 90.75 L 149.48 90.66 C 149.12 89.81 148.74 88.97 148.36 88.13 C 146.95 87.14 146.20 85.56 145.43 84.08 Z"></path>
<path fill="#f5bc9c" d=" M 303.12 84.05 C 304.34 83.62 305.57 85.56 304.98 86.61 C 303.73 87.04 302.49 85.11 303.12 84.05 Z"></path>
<path fill="transparent" d=" M 299.55 85.18 C 301.19 84.21 302.98 87.75 300.96 88.29 C 299.62 88.14 298.96 86.27 299.55 85.18 Z"></path>
<path fill="transparent" d=" M 478.42 84.89 C 479.31 85.78 480.16 86.69 481.05 87.61 C 480.18 88.08 479.31 88.56 478.45 89.02 C 478.42 87.64 478.41 86.27 478.42 84.89 Z"></path>
<path fill="#399121" d=" M 173.32 86.24 C 174.27 86.65 175.21 87.06 176.14 87.50 L 177.12 88.03 C 176.51 89.49 175.91 90.95 175.29 92.42 C 173.99 92.53 172.70 92.65 171.40 92.78 C 170.91 92.76 169.91 92.73 169.41 92.72 C 169.34 92.13 169.19 90.95 169.12 90.36 C 169.67 90.61 170.76 91.11 171.30 91.36 C 171.94 89.64 172.62 87.94 173.32 86.24 Z"></path>
<path fill="#9b681e" d=" M 434.90 86.52 C 436.49 85.94 437.02 86.47 436.51 88.12 C 434.90 88.71 434.36 88.18 434.90 86.52 Z"></path>
<path fill="#716d1e" d=" M 442.32 86.28 C 446.43 88.17 450.42 90.38 454.74 91.79 C 454.37 92.97 454.01 94.14 453.69 95.32 C 449.32 93.22 445.04 90.95 440.69 88.82 C 441.23 87.97 441.78 87.13 442.32 86.28 Z"></path>
<path fill="#01a4e6" d=" M 59.25 86.81 C 65.08 87.19 70.86 88.04 76.67 88.61 C 77.75 89.76 78.38 91.21 79.01 92.64 C 82.77 95.12 87.26 93.53 90.93 91.74 C 95.09 91.50 99.20 92.27 103.27 93.03 C 103.07 93.82 102.69 95.39 102.49 96.18 C 101.82 95.68 101.15 95.18 100.48 94.68 C 98.95 96.25 96.65 96.70 95.27 98.46 C 87.90 97.83 80.52 97.32 73.15 96.79 C 71.90 96.86 70.69 97.17 69.54 97.71 C 68.54 96.49 67.55 95.28 66.55 94.08 C 65.54 95.66 65.13 97.49 64.72 99.30 C 63.26 97.61 61.90 95.83 60.61 94.01 C 59.78 94.95 58.96 95.90 58.13 96.86 C 57.60 95.31 57.19 93.72 56.84 92.12 C 58.11 90.58 59.08 88.83 59.25 86.81 Z"></path>
<path fill="#05cf37" d=" M 166.36 86.83 C 167.32 87.97 168.43 89.02 169.12 90.36 C 169.19 90.95 169.34 92.13 169.41 92.72 C 167.77 92.44 166.15 92.09 164.53 91.71 C 165.12 90.08 165.74 88.45 166.36 86.83 Z"></path>
<path fill="#00b6c6" d=" M 90.93 91.74 C 92.94 90.45 94.84 89.00 96.63 87.43 C 99.34 87.81 102.06 88.19 104.78 88.58 C 104.25 90.06 103.76 91.54 103.27 93.03 C 99.20 92.27 95.09 91.50 90.93 91.74 Z"></path>
<path fill="#6a5e2f" d=" M 177.12 88.03 C 178.43 89.25 179.63 90.58 180.85 91.90 C 179.93 93.06 179.02 94.23 178.11 95.40 C 177.17 94.40 176.23 93.41 175.29 92.42 C 175.91 90.95 176.51 89.49 177.12 88.03 Z"></path>
<path fill="#f2a77e" d=" M 265.29 88.21 C 265.79 88.74 265.79 88.74 265.29 88.21 Z"></path>
<path fill="#f7cbb2" d=" M 303.18 88.51 C 304.56 88.06 305.11 88.53 304.83 89.92 C 303.43 90.37 302.88 89.90 303.18 88.51 Z"></path>
<path fill="#53a269" d=" M 483.27 88.02 C 484.53 88.65 484.52 89.35 483.24 90.13 C 481.97 89.50 481.98 88.80 483.27 88.02 Z"></path>
<path fill="transparent" d=" M 297.03 88.78 C 298.35 89.94 299.66 91.11 300.95 92.31 C 300.21 92.54 298.73 93.00 297.99 93.24 C 297.67 91.75 297.34 90.27 297.03 88.78 Z"></path>
<path fill="#a9742e" d=" M 439.54 88.29 L 440.69 88.82 C 445.04 90.95 449.32 93.22 453.69 95.32 C 453.67 95.69 453.65 96.41 453.64 96.78 C 451.42 97.20 449.85 94.95 448.05 94.00 C 443.81 95.47 441.06 91.65 439.54 88.29 Z"></path>
<path fill="transparent" d=" M 486.11 89.47 C 487.30 88.50 488.55 90.65 487.38 91.43 C 486.15 92.48 485.00 90.27 486.11 89.47 Z"></path>
<path fill="transparent" d=" M 65.29 90.35 C 66.70 91.34 64.78 94.67 63.06 93.68 C 62.04 92.28 64.01 90.65 65.29 90.35 Z"></path>
<path fill="#8ed8f3" d=" M 75.20 90.03 C 76.47 90.69 76.43 91.36 75.09 92.06 C 73.81 91.41 73.85 90.73 75.20 90.03 Z"></path>
<path fill="#00b98e" d=" M 160.86 90.72 C 161.74 91.84 162.59 92.96 163.47 94.08 C 163.65 93.47 164.00 92.24 164.18 91.63 L 164.53 91.71 C 166.15 92.09 167.77 92.44 169.41 92.72 C 169.91 92.73 170.91 92.76 171.40 92.78 C 169.86 93.16 168.33 93.64 166.83 94.18 C 166.61 94.67 166.17 95.67 165.95 96.17 C 163.78 96.38 161.60 96.62 159.42 96.78 C 156.49 96.58 153.55 96.53 150.61 96.57 C 150.23 95.70 149.84 94.84 149.45 93.97 C 149.59 93.17 149.87 91.56 150.01 90.75 C 153.59 91.48 157.32 91.90 160.86 90.72 Z"></path>
<path fill="transparent" d=" M 308.52 90.70 C 309.08 91.51 309.64 92.33 310.21 93.14 C 309.35 94.54 308.48 95.95 307.58 97.33 C 308.01 95.13 308.46 92.94 308.52 90.70 Z"></path>
<path fill="#247164" d=" M 171.40 92.78 C 172.70 92.65 173.99 92.53 175.29 92.42 C 176.23 93.41 177.17 94.40 178.11 95.40 C 177.44 96.20 176.78 97.01 176.12 97.81 C 173.44 96.85 170.71 96.03 168.05 95.01 C 167.75 94.80 167.14 94.39 166.83 94.18 C 168.33 93.64 169.86 93.16 171.40 92.78 Z"></path>
<path fill="#70d0ed" d=" M 107.12 93.31 C 108.72 92.76 109.31 93.31 108.88 94.95 C 107.27 95.49 106.69 94.95 107.12 93.31 Z"></path>
<path fill="#9fd7d1" d=" M 165.95 96.17 C 166.17 95.67 166.61 94.67 166.83 94.18 C 167.14 94.39 167.75 94.80 168.05 95.01 C 167.53 95.30 166.48 95.88 165.95 96.17 Z"></path>
<path fill="#088eb2" d=" M 168.05 95.01 C 170.71 96.03 173.44 96.85 176.12 97.81 C 175.53 98.86 174.96 99.92 174.39 100.98 C 169.33 99.84 164.13 99.08 159.42 96.78 C 161.60 96.62 163.78 96.38 165.95 96.17 C 166.48 95.88 167.53 95.30 168.05 95.01 Z"></path>
<path fill="#f9d7c4" d=" M 317.33 95.03 C 318.74 94.31 320.23 96.43 319.81 97.70 C 318.58 98.00 316.72 96.30 317.33 95.03 Z"></path>
<path fill="#f5ba9a" d=" M 268.35 96.05 C 271.34 94.50 268.53 99.37 268.35 96.05 Z"></path>
<path fill="#0b8fd6" d=" M 73.15 96.79 C 80.52 97.32 87.90 97.83 95.27 98.46 C 91.80 99.86 88.45 101.53 85.08 103.14 C 84.97 102.27 84.77 100.54 84.66 99.68 C 83.00 100.15 81.40 100.84 79.85 101.60 C 79.59 100.39 79.32 99.20 79.06 98.00 C 76.98 98.31 73.87 99.87 73.15 96.79 Z"></path>
<path fill="#00a4e7" d=" M 150.61 96.57 C 153.55 96.53 156.49 96.58 159.42 96.78 C 164.13 99.08 169.33 99.84 174.39 100.98 C 172.81 103.13 172.59 107.75 169.22 107.36 C 168.51 108.72 168.32 110.51 167.11 111.52 C 162.59 110.49 158.09 109.40 153.51 108.68 C 154.71 106.02 155.95 103.38 157.08 100.69 C 154.59 99.87 151.44 99.54 150.61 96.57 Z"></path>
<path fill="transparent" d=" M 313.15 103.17 C 314.42 101.18 315.91 99.34 317.58 97.67 C 317.84 98.15 318.36 99.11 318.63 99.59 C 318.37 100.18 317.87 101.37 317.62 101.97 C 316.14 102.41 314.64 102.81 313.15 103.17 Z"></path>
<path fill="#017520" d=" M 485.14 98.09 C 486.40 98.01 487.08 98.61 487.19 99.90 C 486.55 100.92 484.40 101.23 483.77 100.09 C 484.11 99.59 484.80 98.59 485.14 98.09 Z"></path>
<path fill="#09814a" d=" M 494.35 101.44 C 495.18 100.25 496.01 99.05 496.88 97.89 C 496.74 98.68 496.45 100.26 496.30 101.05 C 498.00 100.40 499.72 99.74 501.44 99.12 C 501.51 99.81 501.65 101.20 501.72 101.89 C 499.33 103.69 496.66 102.94 494.35 101.44 Z"></path>
<path fill="transparent" d=" M 304.93 102.44 C 304.00 101.48 305.43 99.60 306.61 100.04 C 307.38 101.00 306.14 102.93 304.93 102.44 Z"></path>
<path fill="transparent" d=" M 157.28 107.12 C 157.22 104.90 157.71 102.73 158.79 100.78 C 159.12 103.04 158.44 105.20 157.28 107.12 Z"></path>
<path fill="#108ccf" d=" M 153.36 108.66 L 153.51 108.68 C 158.09 109.40 162.59 110.49 167.11 111.52 L 167.76 111.66 C 166.94 112.70 166.12 113.74 165.30 114.77 C 162.34 114.65 159.36 114.44 156.49 113.64 C 155.39 113.20 153.98 113.18 153.19 114.21 C 152.39 114.06 150.79 113.77 150.00 113.62 C 151.14 111.98 152.26 110.33 153.36 108.66 Z"></path>
<path fill="#e1641c" d=" M 317.01 109.38 C 318.51 108.84 319.99 111.32 319.00 112.48 C 317.53 112.91 316.04 110.54 317.01 109.38 Z"></path>
<path fill="transparent" d=" M 153.19 114.21 C 153.98 113.18 155.39 113.20 156.49 113.64 C 155.87 114.83 154.97 115.75 153.81 116.39 C 153.66 115.85 153.35 114.76 153.19 114.21 Z"></path>
<path fill="#334d8e" d=" M 147.91 118.78 C 146.66 116.75 149.19 115.27 150.00 113.62 C 150.79 113.77 152.39 114.06 153.19 114.21 C 153.35 114.76 153.66 115.85 153.81 116.39 C 154.97 115.75 155.87 114.83 156.49 113.64 C 159.36 114.44 162.34 114.65 165.30 114.77 C 163.96 115.93 163.05 118.12 161.34 118.56 C 157.21 117.22 152.55 116.88 148.56 118.84 L 147.91 118.78 Z"></path>
<path fill="#551951" d=" M 148.56 118.84 C 152.55 116.88 157.21 117.22 161.34 118.56 L 161.93 118.71 C 161.54 119.43 160.78 120.86 160.40 121.58 C 154.91 121.01 149.02 121.95 145.09 126.18 L 144.46 126.73 C 143.98 126.05 143.02 124.71 142.54 124.03 C 144.20 122.56 145.69 120.90 146.55 118.83 L 146.92 119.05 C 147.05 119.69 147.31 120.97 147.44 121.61 C 147.82 121.46 148.60 121.15 148.98 120.99 C 148.88 120.45 148.67 119.38 148.56 118.84 Z"></path>
<path fill="#6c0126" d=" M 145.09 126.18 C 149.02 121.95 154.91 121.01 160.40 121.58 C 158.66 126.51 155.16 130.47 151.62 134.21 C 150.79 133.06 149.95 131.93 149.09 130.80 C 148.97 132.36 148.96 133.94 149.67 135.38 C 147.72 133.43 145.36 131.98 142.71 131.20 C 141.49 132.24 140.26 133.27 138.97 134.23 C 139.06 133.07 139.20 131.92 139.38 130.78 C 141.44 130.00 143.46 129.12 145.47 128.24 C 145.38 127.73 145.19 126.70 145.09 126.18 Z"></path>
<path fill="#936390" d=" M 140.04 127.20 C 141.65 126.80 142.22 127.39 141.78 128.99 C 140.14 129.43 139.56 128.83 140.04 127.20 Z"></path>
</svg>
